# xmcd CD database file
# Copyright (C) 1996 Ti Kan
#
# Track frame offsets:
# 	150
# 	14002
# 	31660
# 	47007
# 	60862
# 	75440
# 	87895
# 	101150
# 	114322
# 	130212
#
# Disc length: 1993 seconds
#
# Revision: 1
# Processed by: cddbd v1.4b41PL1 Copyright (c) Steve Scherf et al.
# Submitted via: DiscPlay 3.3.1
#
DISCID=6e07c70a
DTITLE=DOUG STONE - MORE LOVE
DYEAR=1900
DGENRE=
TTITLE0=ADDICTED TO A DOLLAR
TTITLE1=SHE USED TO LOVE ME A LOT
TTITLE2=MORE LOVE
TTITLE3=LITTLE SISTER'S BLUE JEANS
TTITLE4=SMALL STEPS
TTITLE5=WHISHBONE
TTITLE6=WHAT'S A LIE
TTITLE7=LOVE, YOU TOOK ME BY SUPRISE
TTITLE8=I NEVER KNEW LOVE
TTITLE9=DREAM HIGH
EXTD=
EXTT0=
EXTT1=
EXTT2=
EXTT3=
EXTT4=
EXTT5=
EXTT6=
EXTT7=
EXTT8=
EXTT9=
PLAYORDER=
